<svg width="19" height="19" viewBox="0 0 19 19" fill="none" xmlns="http://www.w3.org/2000/svg">
<path d="M9.06378 5.23882C6.52087 5.23882 4.46975 7.2579 4.46975 9.76108C4.46975 12.2643 6.52087 14.2833 9.06378 14.2833C11.6067 14.2833 13.6578 12.2643 13.6578 9.76108C13.6578 7.2579 11.6067 5.23882 9.06378 5.23882ZM9.06378 12.7011C7.42049 12.7011 6.07706 11.3826 6.07706 9.76108C6.07706 8.13952 7.41649 6.82102 9.06378 6.82102C10.7111 6.82102 12.0505 8.13952 12.0505 9.76108C12.0505 11.3826 10.7071 12.7011 9.06378 12.7011ZM14.9173 5.05384C14.9173 5.64028 14.4375 6.10864 13.8457 6.10864C13.25 6.10864 12.7742 5.63634 12.7742 5.05384C12.7742 4.47134 13.254 3.99904 13.8457 3.99904C14.4375 3.99904 14.9173 4.47134 14.9173 5.05384ZM17.96 6.12438C17.892 4.71142 17.5641 3.45983 16.5126 2.42865C15.465 1.39747 14.1936 1.07473 12.7582 1.00388C11.2788 0.921231 6.84473 0.921231 5.36536 1.00388C3.93398 1.07079 2.66252 1.39353 1.61097 2.42471C0.55942 3.4559 0.235559 4.70749 0.16359 6.12045C0.0796254 7.5767 0.0796254 11.9415 0.16359 13.3978C0.23156 14.8107 0.55942 16.0623 1.61097 17.0935C2.66252 18.1247 3.92998 18.4474 5.36536 18.5183C6.84473 18.6009 11.2788 18.6009 12.7582 18.5183C14.1936 18.4514 15.465 18.1286 16.5126 17.0935C17.5601 16.0623 17.888 14.8107 17.96 13.3978C18.0439 11.9415 18.0439 7.58063 17.96 6.12438ZM16.0488 14.9603C15.7369 15.7317 15.1332 16.326 14.3455 16.6369C13.166 17.0974 10.3672 16.9912 9.06378 16.9912C7.76034 16.9912 4.95754 17.0935 3.78204 16.6369C2.99838 16.33 2.39464 15.7356 2.07877 14.9603C1.61097 13.7992 1.71892 11.0442 1.71892 9.76108C1.71892 8.478 1.61497 5.71899 2.07877 4.56186C2.39064 3.79044 2.99438 3.19613 3.78204 2.8852C4.96154 2.42471 7.76034 2.53098 9.06378 2.53098C10.3672 2.53098 13.17 2.42865 14.3455 2.8852C15.1292 3.1922 15.7329 3.78651 16.0488 4.56186C16.5166 5.72293 16.4086 8.478 16.4086 9.76108C16.4086 11.0442 16.5166 13.8032 16.0488 14.9603Z" fill="#172B4D"/>
</svg>
